<svg xmlns="http://www.w3.org/2000/svg" width="380" height="2130" viewBox="0 0 380 2130" role="img">
<title>温度モデルの出力</title><desc>曲線は端点を含む式の区間で終了する。合成区間は人為的なソフトウェアデモである。出力は測定や理論的限界ではなく、外挿は許可されない。 合成デモには経験的適合誤差がない。経験的モデルの適合誤差は測定不確かさ、信頼区間、検証済み最大誤差限界ではない。統計的な帯は描かない。 各温度で適用可能なすべての分岐を保持する。選択、平均化、平滑化、物理的不連続の推定は行わない。</desc>
<rect width="100%" height="100%" fill="#f6f9fc"/>
<style>text{font-family:DejaVu Sans,Noto Sans CJK JP,sans-serif} .grid{stroke:#d6e0e8;stroke-width:1}</style>
<text x="24" y="25" font-size="11" fill="#15344b">MATERIALS BOUNDARIES · v0.16.0</text>
<text x="24" y="54" font-size="21" fill="#15344b">温度モデルの出力</text>
<text x="24" y="82" font-size="12" fill="#15344b">合成デモと出典付きモデル · 個別パネル</text>
<text x="24" y="102" font-size="12" fill="#15344b">温度軸は共通。各パネルの弾性率目盛は独立して明</text>
<text x="24" y="121" font-size="12" fill="#15344b">示。重ね描きや試験片条件の同一性は主張しない。</text>
<g data-model-id="synthetic_linear_temperature">
<rect x="24" y="155" width="332" height="559" rx="12" fill="white" stroke="#d6e0e8"/>
<text x="38" y="183" font-size="18" fill="#15344b">合成線形デモ</text>
<text x="38" y="209" font-size="11" fill="#15344b">合成デモ：実在材料、試料、経験的証拠はない</text>
<text x="38" y="226" font-size="11" fill="#15344b">出典：</text>
<text x="38" y="243" font-size="11" fill="#15344b">materials_boundaries_synthetic_temperature_d</text>
<text x="38" y="260" font-size="11" fill="#15344b">emo</text>
<text x="84" y="291" font-size="11" fill="#15344b">モデル値（GPa）</text>
<path class="grid" d="M 84 496 H 334"/>
<text x="77" y="500" font-size="11" text-anchor="end" fill="#15344b">9.9</text>
<path class="grid" d="M 84 448 H 334"/>
<text x="77" y="452" font-size="11" text-anchor="end" fill="#15344b">12.7</text>
<path class="grid" d="M 84 400 H 334"/>
<text x="77" y="404" font-size="11" text-anchor="end" fill="#15344b">15.5</text>
<path class="grid" d="M 84 352 H 334"/>
<text x="77" y="356" font-size="11" text-anchor="end" fill="#15344b">18.3</text>
<path class="grid" d="M 84 304 H 334"/>
<text x="77" y="308" font-size="11" text-anchor="end" fill="#15344b">21.1</text>
<path class="grid" d="M 84 304 V 496"/>
<text x="84" y="515" font-size="10" text-anchor="middle" fill="#15344b">0</text>
<path class="grid" d="M 125.667 304 V 496"/>
<text x="125.667" y="515" font-size="10" text-anchor="middle" fill="#15344b">50</text>
<path class="grid" d="M 167.333 304 V 496"/>
<text x="167.333" y="515" font-size="10" text-anchor="middle" fill="#15344b">100</text>
<path class="grid" d="M 209 304 V 496"/>
<text x="209" y="515" font-size="10" text-anchor="middle" fill="#15344b">150</text>
<path class="grid" d="M 250.667 304 V 496"/>
<text x="250.667" y="515" font-size="10" text-anchor="middle" fill="#15344b">200</text>
<path class="grid" d="M 292.333 304 V 496"/>
<text x="292.333" y="515" font-size="10" text-anchor="middle" fill="#15344b">250</text>
<path class="grid" d="M 334 304 V 496"/>
<text x="334" y="515" font-size="10" text-anchor="middle" fill="#15344b">300</text>
<text x="209" y="535" font-size="12" text-anchor="middle" fill="#15344b">温度 (K)</text>
<polyline data-branch-id="synthetic_linear_10_100" fill="none" stroke="#087f8c" stroke-width="2.4" points="92.333333,477.419355 93.083333,475.870968 93.833333,474.322581 94.583333,472.774194 95.333333,471.225806 96.083333,469.677419 96.833333,468.129032 97.583333,466.580645 98.333333,465.032258 99.083333,463.483871 99.833333,461.935484 100.583333,460.387097 101.333333,458.838710 102.083333,457.290323 102.833333,455.741935 103.583333,454.193548 104.333333,452.645161 105.083333,451.096774 105.833333,449.548387 106.583333,448.000000 107.333333,446.451613 108.083333,444.903226 108.833333,443.354839 109.583333,441.806452 110.333333,440.258065 111.083333,438.709677 111.833333,437.161290 112.583333,435.612903 113.333333,434.064516 114.083333,432.516129 114.833333,430.967742 115.583333,429.419355 116.333333,427.870968 117.083333,426.322581 117.833333,424.774194 118.583333,423.225806 119.333333,421.677419 120.083333,420.129032 120.833333,418.580645 121.583333,417.032258 122.333333,415.483871 123.083333,413.935484 123.833333,412.387097 124.583333,410.838710 125.333333,409.290323 126.083333,407.741935 126.833333,406.193548 127.583333,404.645161 128.333333,403.096774 129.083333,401.548387 129.833333,400.000000 130.583333,398.451613 131.333333,396.903226 132.083333,395.354839 132.833333,393.806452 133.583333,392.258065 134.333333,390.709677 135.083333,389.161290 135.833333,387.612903 136.583333,386.064516 137.333333,384.516129 138.083333,382.967742 138.833333,381.419355 139.583333,379.870968 140.333333,378.322581 141.083333,376.774194 141.833333,375.225806 142.583333,373.677419 143.333333,372.129032 144.083333,370.580645 144.833333,369.032258 145.583333,367.483871 146.333333,365.935484 147.083333,364.387097 147.833333,362.838710 148.583333,361.290323 149.333333,359.741935 150.083333,358.193548 150.833333,356.645161 151.583333,355.096774 152.333333,353.548387 153.083333,352.000000 153.833333,350.451613 154.583333,348.903226 155.333333,347.354839 156.083333,345.806452 156.833333,344.258065 157.583333,342.709677 158.333333,341.161290 159.083333,339.612903 159.833333,338.064516 160.583333,336.516129 161.333333,334.967742 162.083333,333.419355 162.833333,331.870968 163.583333,330.322581 164.333333,328.774194 165.083333,327.225806 165.833333,325.677419 166.583333,324.129032 167.333333,322.580645"/>
<circle cx="92.333333" cy="477.419355" r="3.1" fill="#087f8c"><title>synthetic_linear_10_100: 10 K: 11 GPa; prediction</title></circle>
<circle cx="167.333333" cy="322.580645" r="3.1" fill="#087f8c"><title>synthetic_linear_10_100: 100 K: 20 GPa; prediction</title></circle>
<text x="38" y="548" font-size="11" fill="#087f8c">分枝 1: synthetic_linear_10_100</text>
<text x="38" y="565" font-size="11" fill="#087f8c">評価区間: 10–100 K · 出典データ区間:</text>
<text x="38" y="582" font-size="11" fill="#087f8c">適用なし：測定なし</text>
<text x="38" y="599" font-size="11" fill="#087f8c">synthetic_linear_10_100：合成デモ。適合誤差は</text>
<text x="38" y="616" font-size="11" fill="#087f8c">適用されない</text>
<text x="38" y="650" font-size="11" fill="#15344b">プロジェクト独自の合成デモ。再利用条件はプロジェ</text>
<text x="38" y="667" font-size="11" fill="#15344b">クトの LICENSE を参照</text>
</g>
<g data-model-id="synthetic_overlap_temperature">
<rect x="24" y="730" width="332" height="729" rx="12" fill="white" stroke="#d6e0e8"/>
<text x="38" y="758" font-size="18" fill="#15344b">合成端点重複デモ</text>
<text x="38" y="784" font-size="11" fill="#15344b">合成デモ：実在材料、試料、経験的証拠はない</text>
<text x="38" y="801" font-size="11" fill="#15344b">出典：</text>
<text x="38" y="818" font-size="11" fill="#15344b">materials_boundaries_synthetic_temperature_d</text>
<text x="38" y="835" font-size="11" fill="#15344b">emo</text>
<text x="84" y="866" font-size="11" fill="#15344b">モデル値（GPa）</text>
<path class="grid" d="M 84 1071 H 334"/>
<text x="77" y="1075" font-size="11" text-anchor="end" fill="#15344b">20.4</text>
<path class="grid" d="M 84 1023 H 334"/>
<text x="77" y="1027" font-size="11" text-anchor="end" fill="#15344b">24.5</text>
<path class="grid" d="M 84 975 H 334"/>
<text x="77" y="979" font-size="11" text-anchor="end" fill="#15344b">28.5</text>
<path class="grid" d="M 84 927 H 334"/>
<text x="77" y="931" font-size="11" text-anchor="end" fill="#15344b">32.5</text>
<path class="grid" d="M 84 879 H 334"/>
<text x="77" y="883" font-size="11" text-anchor="end" fill="#15344b">36.6</text>
<path class="grid" d="M 84 879 V 1071"/>
<text x="84" y="1090" font-size="10" text-anchor="middle" fill="#15344b">0</text>
<path class="grid" d="M 125.667 879 V 1071"/>
<text x="125.667" y="1090" font-size="10" text-anchor="middle" fill="#15344b">50</text>
<path class="grid" d="M 167.333 879 V 1071"/>
<text x="167.333" y="1090" font-size="10" text-anchor="middle" fill="#15344b">100</text>
<path class="grid" d="M 209 879 V 1071"/>
<text x="209" y="1090" font-size="10" text-anchor="middle" fill="#15344b">150</text>
<path class="grid" d="M 250.667 879 V 1071"/>
<text x="250.667" y="1090" font-size="10" text-anchor="middle" fill="#15344b">200</text>
<path class="grid" d="M 292.333 879 V 1071"/>
<text x="292.333" y="1090" font-size="10" text-anchor="middle" fill="#15344b">250</text>
<path class="grid" d="M 334 879 V 1071"/>
<text x="334" y="1090" font-size="10" text-anchor="middle" fill="#15344b">300</text>
<text x="209" y="1110" font-size="12" text-anchor="middle" fill="#15344b">温度 (K)</text>
<polyline data-branch-id="synthetic_overlap_20_50" fill="none" stroke="#087f8c" stroke-width="2.4" points="100.666667,1052.419355 100.916667,1052.062035 101.166667,1051.704715 101.416667,1051.347395 101.666667,1050.990074 101.916667,1050.632754 102.166667,1050.275434 102.416667,1049.918114 102.666667,1049.560794 102.916667,1049.203474 103.166667,1048.846154 103.416667,1048.488834 103.666667,1048.131514 103.916667,1047.774194 104.166667,1047.416873 104.416667,1047.059553 104.666667,1046.702233 104.916667,1046.344913 105.166667,1045.987593 105.416667,1045.630273 105.666667,1045.272953 105.916667,1044.915633 106.166667,1044.558313 106.416667,1044.200993 106.666667,1043.843672 106.916667,1043.486352 107.166667,1043.129032 107.416667,1042.771712 107.666667,1042.414392 107.916667,1042.057072 108.166667,1041.699752 108.416667,1041.342432 108.666667,1040.985112 108.916667,1040.627792 109.166667,1040.270471 109.416667,1039.913151 109.666667,1039.555831 109.916667,1039.198511 110.166667,1038.841191 110.416667,1038.483871 110.666667,1038.126551 110.916667,1037.769231 111.166667,1037.411911 111.416667,1037.054591 111.666667,1036.697270 111.916667,1036.339950 112.166667,1035.982630 112.416667,1035.625310 112.666667,1035.267990 112.916667,1034.910670 113.166667,1034.553350 113.416667,1034.196030 113.666667,1033.838710 113.916667,1033.481390 114.166667,1033.124069 114.416667,1032.766749 114.666667,1032.409429 114.916667,1032.052109 115.166667,1031.694789 115.416667,1031.337469 115.666667,1030.980149 115.916667,1030.622829 116.166667,1030.265509 116.416667,1029.908189 116.666667,1029.550868 116.916667,1029.193548 117.166667,1028.836228 117.416667,1028.478908 117.666667,1028.121588 117.916667,1027.764268 118.166667,1027.406948 118.416667,1027.049628 118.666667,1026.692308 118.916667,1026.334988 119.166667,1025.977667 119.416667,1025.620347 119.666667,1025.263027 119.916667,1024.905707 120.166667,1024.548387 120.416667,1024.191067 120.666667,1023.833747 120.916667,1023.476427 121.166667,1023.119107 121.416667,1022.761787 121.666667,1022.404467 121.916667,1022.047146 122.166667,1021.689826 122.416667,1021.332506 122.666667,1020.975186 122.916667,1020.617866 123.166667,1020.260546 123.416667,1019.903226 123.666667,1019.545906 123.916667,1019.188586 124.166667,1018.831266 124.416667,1018.473945 124.666667,1018.116625 124.916667,1017.759305 125.166667,1017.401985 125.416667,1017.044665 125.666667,1016.687345"/>
<circle cx="100.666667" cy="1052.419355" r="3.1" fill="#087f8c"><title>synthetic_overlap_20_50: 20 K: 22 GPa; prediction</title></circle>
<circle cx="125.666667" cy="1016.687345" r="3.1" fill="#087f8c"><title>synthetic_overlap_20_50: 50 K: 25 GPa; ambiguous_overlap</title></circle>
<polyline data-branch-id="synthetic_overlap_50_100" fill="none" stroke="#a45117" stroke-width="2.4" points="125.666667,927.357320 126.083333,927.059553 126.500000,926.761787 126.916667,926.464020 127.333333,926.166253 127.750000,925.868486 128.166667,925.570720 128.583333,925.272953 129.000000,924.975186 129.416667,924.677419 129.833333,924.379653 130.250000,924.081886 130.666667,923.784119 131.083333,923.486352 131.500000,923.188586 131.916667,922.890819 132.333333,922.593052 132.750000,922.295285 133.166667,921.997519 133.583333,921.699752 134.000000,921.401985 134.416667,921.104218 134.833333,920.806452 135.250000,920.508685 135.666667,920.210918 136.083333,919.913151 136.500000,919.615385 136.916667,919.317618 137.333333,919.019851 137.750000,918.722084 138.166667,918.424318 138.583333,918.126551 139.000000,917.828784 139.416667,917.531017 139.833333,917.233251 140.250000,916.935484 140.666667,916.637717 141.083333,916.339950 141.500000,916.042184 141.916667,915.744417 142.333333,915.446650 142.750000,915.148883 143.166667,914.851117 143.583333,914.553350 144.000000,914.255583 144.416667,913.957816 144.833333,913.660050 145.250000,913.362283 145.666667,913.064516 146.083333,912.766749 146.500000,912.468983 146.916667,912.171216 147.333333,911.873449 147.750000,911.575682 148.166667,911.277916 148.583333,910.980149 149.000000,910.682382 149.416667,910.384615 149.833333,910.086849 150.250000,909.789082 150.666667,909.491315 151.083333,909.193548 151.500000,908.895782 151.916667,908.598015 152.333333,908.300248 152.750000,908.002481 153.166667,907.704715 153.583333,907.406948 154.000000,907.109181 154.416667,906.811414 154.833333,906.513648 155.250000,906.215881 155.666667,905.918114 156.083333,905.620347 156.500000,905.322581 156.916667,905.024814 157.333333,904.727047 157.750000,904.429280 158.166667,904.131514 158.583333,903.833747 159.000000,903.535980 159.416667,903.238213 159.833333,902.940447 160.250000,902.642680 160.666667,902.344913 161.083333,902.047146 161.500000,901.749380 161.916667,901.451613 162.333333,901.153846 162.750000,900.856079 163.166667,900.558313 163.583333,900.260546 164.000000,899.962779 164.416667,899.665012 164.833333,899.367246 165.250000,899.069479 165.666667,898.771712 166.083333,898.473945 166.500000,898.176179 166.916667,897.878412 167.333333,897.580645"/>
<circle cx="125.666667" cy="927.357320" r="3.1" fill="#a45117"><title>synthetic_overlap_50_100: 50 K: 32.5 GPa; ambiguous_overlap</title></circle>
<circle cx="167.333333" cy="897.580645" r="3.1" fill="#a45117"><title>synthetic_overlap_50_100: 100 K: 35 GPa; prediction</title></circle>
<text x="38" y="1123" font-size="11" fill="#087f8c">分枝 1: synthetic_overlap_20_50</text>
<text x="38" y="1140" font-size="11" fill="#087f8c">評価区間: 20–50 K · 出典データ区間:</text>
<text x="38" y="1157" font-size="11" fill="#087f8c">適用なし：測定なし</text>
<text x="38" y="1174" font-size="11" fill="#087f8c">synthetic_overlap_20_50：合成デモ。適合誤差は</text>
<text x="38" y="1191" font-size="11" fill="#087f8c">適用されない</text>
<text x="38" y="1225" font-size="11" fill="#a45117">分枝 2: synthetic_overlap_50_100</text>
<text x="38" y="1242" font-size="11" fill="#a45117">評価区間: 50–100 K · 出典データ区間:</text>
<text x="38" y="1259" font-size="11" fill="#a45117">適用なし：測定なし</text>
<text x="38" y="1276" font-size="11" fill="#a45117">synthetic_overlap_50_100：合成デモ。適合誤差は</text>
<text x="38" y="1293" font-size="11" fill="#a45117">適用されない</text>
<text x="38" y="1327" font-size="11" fill="#15344b">50 K：適用可能な全分岐の予測（GPa）</text>
<text x="38" y="1344" font-size="11" fill="#15344b">synthetic_overlap_20_50：25.000000 GPa</text>
<text x="38" y="1361" font-size="11" fill="#15344b">synthetic_overlap_50_100：32.500000 GPa</text>
<text x="38" y="1395" font-size="11" fill="#15344b">プロジェクト独自の合成デモ。再利用条件はプロジェ</text>
<text x="38" y="1412" font-size="11" fill="#15344b">クトの LICENSE を参照</text>
</g>
<text x="24" y="1483" font-size="12" fill="#15344b">曲線は端点を含む式の区間で終了する。合成区間は</text>
<text x="24" y="1502" font-size="12" fill="#15344b">人為的なソフトウェアデモである。出力は測定や理</text>
<text x="24" y="1521" font-size="12" fill="#15344b">論的限界ではなく、外挿は許可されない。</text>
<text x="24" y="1559" font-size="12" fill="#15344b">合成デモには経験的適合誤差がない。経験的モデル</text>
<text x="24" y="1578" font-size="12" fill="#15344b">の適合誤差は測定不確かさ、信頼区間、検証済み最</text>
<text x="24" y="1597" font-size="12" fill="#15344b">大誤差限界ではない。統計的な帯は描かない。</text>
<text x="24" y="1635" font-size="12" fill="#15344b">合成デモに物理的試料はなく、実験条件は適用され</text>
<text x="24" y="1654" font-size="12" fill="#15344b">ない。経験的モデルも未指定の試料条件を確立しな</text>
<text x="24" y="1673" font-size="12" fill="#15344b">い。</text>
<text x="24" y="1711" font-size="12" fill="#15344b">各温度で適用可能なすべての分岐を保持する。選択</text>
<text x="24" y="1730" font-size="12" fill="#15344b">、平均化、平滑化、物理的不連続の推定は行わない</text>
<text x="24" y="1749" font-size="12" fill="#15344b">。</text>
<text x="24" y="1787" font-size="12" fill="#15344b">列挙した重複位置は分岐端点である。区間の重複は</text>
<text x="24" y="1806" font-size="12" fill="#15344b">その全域で複数予測を保持する。</text>
<text x="24" y="1844" font-size="12" fill="#15344b">合成区間と端点包含規則はデモ用に選択され、測定</text>
<text x="24" y="1863" font-size="12" fill="#15344b">された有効性を示さない。経験的な出典データ区間</text>
<text x="24" y="1882" font-size="12" fill="#15344b">は式の適用範囲を拡張しない。</text>
<text x="24" y="1920" font-size="12" fill="#15344b">表示桁数は計算出力であり、測定精度ではない。</text>
<text x="24" y="1958" font-size="12" fill="#15344b">算術・ソフトウェア検査は経験的検証や独立した科</text>
<text x="24" y="1977" font-size="12" fill="#15344b">学的査読ではない。翻訳は独立した査読を受けてい</text>
<text x="24" y="1996" font-size="12" fill="#15344b">ない。</text>
<text x="24" y="2034" font-size="12" fill="#15344b">同梱デモはプロジェクト独自の合成例である。各モ</text>
<text x="24" y="2053" font-size="12" fill="#15344b">デルは自身の来歴と再利用状態を保持する。プロジ</text>
<text x="24" y="2072" font-size="12" fill="#15344b">ェクトの LICENSE と出典メタデータを参照。</text>
</svg>
